# xmcd
#
# Track frame offsets:
# 150
# 13262
# 26585
# 42737
# 57812
# 73740
# 86145
# 102145
# 118192
# 131190
# 146517
# 161032
#
# Disc length: 2303 seconds
#
#
# Revision: 0
# Processed by: cddbd v1.4PL0 Copyright (c) Steve Scherf et al.
# Submitted via: FreeRIP 2.51 
#
DISCID=b208fd0c
DTITLE=Tom Astor - Junger Adler
DYEAR=1990
DGENRE=Country
TTITLE0=Nutz die Zeit
TTITLE1=Redneck Riviera
TTITLE2=Junger Adler
TTITLE3=Sie war jung und frei
TTITLE4=Schreim mir mal aus Mexico
TTITLE5=Jeden Montag freun wir uns aufs Wochenende
TTITLE6=Sie and Er and ich
TTITLE7=Schuld ist der Baby Boom
TTITLE8=Hey Robby
TTITLE9=Ein Mann lebt gerne seine Träume
TTITLE10=Hey Darling
TTITLE11=Ja, das ist Country Music
EXTD=
EXTT0=
EXTT1=
EXTT2=
EXTT3=
EXTT4=
EXTT5=
EXTT6=
EXTT7=
EXTT8=
EXTT9=
EXTT10=
EXTT11=
PLAYORDER=
